<?xml version="1.0" encoding="UTF-8" standalone="no"?>
<!DOCTYPE svg PUBLIC "-//W3C//DTD SVG 1.1//EN" "http://www.w3.org/Graphics/SVG/1.1/DTD/svg11.dtd">
<svg width="100%" height="100%" viewBox="0 0 610 210" version="1.1" xmlns="http://www.w3.org/2000/svg" xmlns:xlink="http://www.w3.org/1999/xlink" xml:space="preserve" xmlns:serif="http://www.serif.com/" style="fill-rule:evenodd;clip-rule:evenodd;stroke-linejoin:round;stroke-miterlimit:2;">
    <g>
        <g transform="matrix(0.932083,0,0,0.751253,-194.605,-111.766)">
            <rect x="208.785" y="148.773" width="654.448" height="279.533"/>
        </g>
        <g transform="matrix(1,0,0,1,-201,-180.762)">
            <g>
                <g transform="matrix(131.058,0,0,131.058,267.437,333.117)">
                    <path d="M0.51,-0.601L0.611,-0.16L0.771,-0.723L0.854,-0.723L0.651,0L0.549,0L0.46,-0.391L0.51,-0.601Z" style="fill:white;"/>
                </g>
                <g transform="matrix(131.058,0,0,131.058,267.437,333.117)">
                    <path d="M0.422,-0.556L0.422,-0.557L0.289,0L0.187,0L0.001,-0.723L0.1,-0.723L0.248,-0.152L0.384,-0.723L0.462,-0.723L0.422,-0.556Z" style="fill:white;"/>
                </g>
            </g>
            <g transform="matrix(1,0,0,0.848633,0,50.423)">
                <path d="M464.484,238.407L464.516,238.407L501.504,333.117L486.977,333.117L476.674,306.879L436.551,306.879L426.12,333.117L413.641,333.117L450.459,240.287L450.45,240.264L457.887,221.514L464.484,238.407ZM472.771,296.896L456.645,256.069L440.454,296.896L472.771,296.896Z" style="fill:white;fill-rule:nonzero;"/>
            </g>
            <g transform="matrix(131.058,0,0,131.058,542.297,333.117)">
                <path d="M0.093,-0L0.093,-0.723L0.312,-0.723C0.381,-0.723 0.434,-0.707 0.471,-0.677C0.508,-0.646 0.527,-0.602 0.527,-0.543C0.527,-0.447 0.478,-0.379 0.381,-0.338L0.622,-0L0.496,-0L0.291,-0.306L0.195,-0.306L0.195,-0L0.093,-0ZM0.195,-0.382L0.228,-0.382C0.357,-0.382 0.421,-0.433 0.421,-0.534C0.421,-0.609 0.367,-0.646 0.259,-0.646L0.195,-0.646L0.195,-0.382Z" style="fill:white;fill-rule:nonzero;"/>
            </g>
            <g transform="matrix(131.058,0,0,131.058,674.298,333.117)">
                <path d="M0.093,-0L0.093,-0.723L0.29,-0.723C0.377,-0.723 0.44,-0.708 0.478,-0.678C0.516,-0.649 0.535,-0.601 0.535,-0.533C0.535,-0.456 0.509,-0.396 0.457,-0.353C0.405,-0.309 0.333,-0.287 0.24,-0.287L0.195,-0.287L0.195,-0L0.093,-0ZM0.195,-0.365L0.236,-0.365C0.297,-0.365 0.344,-0.379 0.377,-0.407C0.411,-0.435 0.427,-0.474 0.427,-0.525C0.427,-0.569 0.414,-0.6 0.388,-0.618C0.362,-0.637 0.319,-0.646 0.258,-0.646L0.195,-0.646L0.195,-0.365Z" style="fill:white;fill-rule:nonzero;"/>
            </g>
        </g>
    </g>
</svg>
